<?xml version="1.0" standalone="no"?>
<!DOCTYPE svg PUBLIC "-//W3C//DTD SVG 20010904//EN"
 "http://www.w3.org/TR/2001/REC-SVG-20010904/DTD/svg10.dtd">
<svg version="1.0" xmlns="http://www.w3.org/2000/svg"
 width="512.000000pt" height="512.000000pt" viewBox="0 0 512.000000 512.000000"
 preserveAspectRatio="xMidYMid meet">
<metadata>
Created by potrace 1.11, written by Peter Selinger 2001-2013
</metadata>
<g transform="translate(0.000000,512.000000) scale(0.100000,-0.100000)"
fill="#000000" stroke="none">
<path d="M2126 3563 c-2 -2 -16 -6 -32 -9 -45 -8 -148 -35 -159 -42 -5 -4 -18
-8 -27 -9 -44 -7 -226 -109 -259 -145 -9 -10 -20 -18 -23 -18 -31 0 -246 -260
-246 -297 0 -7 -4 -13 -9 -13 -7 0 -13 -14 -20 -45 -1 -3 -9 -19 -19 -37 -16
-28 -25 -33 -63 -36 -82 -7 -289 -88 -289 -114 0 -4 -5 -8 -10 -8 -18 0 -140
-114 -140 -130 0 -18 -29 -17 -85 2 -35 11 -95 21 -150 23 -106 5 -203 -17
-295 -66 -58 -31 -166 -126 -193 -171 -62 -100 -96 -188 -92 -235 1 -13 -1
-23 -5 -23 -13 0 -2 -159 15 -217 58 -203 235 -365 439 -402 85 -16 4135 -15
4207 0 128 28 240 100 323 209 82 107 119 223 118 368 -1 51 -4 97 -7 102 -3
5 -8 18 -10 27 -8 42 -50 141 -75 178 -82 120 -203 207 -330 237 -136 32 -301
5 -403 -65 -34 -23 -43 -17 -72 53 -20 47 -55 103 -67 108 -5 2 -8 10 -8 17 0
21 -148 165 -212 208 -63 42 -171 95 -203 100 -11 1 -24 5 -30 9 -22 14 -191
35 -251 32 -21 -2 -58 -5 -81 -9 -24 -3 -45 -6 -48 -6 -2 0 -23 -6 -45 -14
-22 -8 -41 -14 -43 -14 -3 0 -40 -12 -65 -22 -13 -5 -25 -9 -27 -9 -2 0 -20
25 -40 55 -19 30 -39 55 -45 55 -5 0 -10 6 -10 13 0 15 -141 148 -191 180 -66
42 -74 47 -129 75 -79 41 -197 80 -295 99 -40 7 -293 12 -299 6z"/>
</g>
</svg>
